<?xml version="1.0" standalone="no"?>
<svg xmlns:xlink="http://www.w3.org/1999/xlink" id="wave" style="transform:rotate(0deg); transition: 0.3s" viewBox="0 0 1440 490" version="1.1" xmlns="http://www.w3.org/2000/svg"><defs><linearGradient id="sw-gradient-0" x1="0" x2="0" y1="1" y2="0"><stop stop-color="rgba(62, 120.971, 243, 1)" offset="0%"/><stop stop-color="rgba(11, 57.43, 255, 1)" offset="100%"/></linearGradient></defs><path style="transform:translate(0, 0px); opacity:1" fill="url(#sw-gradient-0)" d="M0,0L30,8.2C60,16,120,33,180,81.7C240,131,300,212,360,269.5C420,327,480,359,540,375.7C600,392,660,392,720,351.2C780,310,840,229,900,236.8C960,245,1020,343,1080,343C1140,343,1200,245,1260,220.5C1320,196,1380,245,1440,220.5C1500,196,1560,98,1620,114.3C1680,131,1740,261,1800,326.7C1860,392,1920,392,1980,351.2C2040,310,2100,229,2160,163.3C2220,98,2280,49,2340,65.3C2400,82,2460,163,2520,163.3C2580,163,2640,82,2700,106.2C2760,131,2820,261,2880,310.3C2940,359,3000,327,3060,294C3120,261,3180,229,3240,220.5C3300,212,3360,229,3420,261.3C3480,294,3540,343,3600,343C3660,343,3720,294,3780,277.7C3840,261,3900,278,3960,302.2C4020,327,4080,359,4140,334.8C4200,310,4260,229,4290,187.8L4320,147L4320,490L4290,490C4260,490,4200,490,4140,490C4080,490,4020,490,3960,490C3900,490,3840,490,3780,490C3720,490,3660,490,3600,490C3540,490,3480,490,3420,490C3360,490,3300,490,3240,490C3180,490,3120,490,3060,490C3000,490,2940,490,2880,490C2820,490,2760,490,2700,490C2640,490,2580,490,2520,490C2460,490,2400,490,2340,490C2280,490,2220,490,2160,490C2100,490,2040,490,1980,490C1920,490,1860,490,1800,490C1740,490,1680,490,1620,490C1560,490,1500,490,1440,490C1380,490,1320,490,1260,490C1200,490,1140,490,1080,490C1020,490,960,490,900,490C840,490,780,490,720,490C660,490,600,490,540,490C480,490,420,490,360,490C300,490,240,490,180,490C120,490,60,490,30,490L0,490Z"/></svg>